<svg width="24" height="24" viewBox="0 0 24 24" fill="none" xmlns="http://www.w3.org/2000/svg">
<g clip-path="url(#clip0_4097_35777)">
<path d="M14.9796 12.798L15.3357 10.4809H13.1133V8.97527C13.1133 8.33966 13.4243 7.72207 14.4206 7.72207H15.4303V5.74762C15.4303 5.74762 14.5107 5.58984 13.6362 5.58984C11.806 5.58984 10.6069 6.69878 10.6069 8.7093V10.4764H8.56934V12.7934H10.6069V18.3968H13.1133V12.7934H14.9796V12.798Z" fill="white"/>
<path d="M12 24C5.38242 24 0 18.6176 0 12C0 5.38242 5.38242 0 12 0C18.6176 0 24 5.38242 24 12C24 18.6176 18.6176 24 12 24ZM12 0.450789C5.63035 0.450789 0.450789 5.63035 0.450789 12C0.450789 18.3696 5.63035 23.5492 12 23.5492C18.3696 23.5492 23.5492 18.3696 23.5492 12C23.5492 5.63035 18.3696 0.450789 12 0.450789Z" fill="white"/>
</g>
<defs>
<clipPath id="clip0_4097_35777">
<rect width="24" height="24" fill="white"/>
</clipPath>
</defs>
</svg>
