<svg width="24" height="24" viewBox="0 0 24 24" fill="none" xmlns="http://www.w3.org/2000/svg">
<path d="M5.52509 21C5.07509 21 4.67509 20.8625 4.32509 20.5875C3.97509 20.3125 3.73342 19.9583 3.60009 19.525L1.05009 10.275C0.966752 9.95833 1.02092 9.66667 1.21259 9.4C1.40425 9.13333 1.66675 9 2.00009 9H6.75009L11.1501 2.45C11.2334 2.31667 11.3501 2.20833 11.5001 2.125C11.6501 2.04167 11.8084 2 11.9751 2C12.1418 2 12.3001 2.04167 12.4501 2.125C12.6001 2.20833 12.7168 2.31667 12.8001 2.45L17.2001 9H22.0001C22.3334 9 22.5959 9.13333 22.7876 9.4C22.9793 9.66667 23.0334 9.95833 22.9501 10.275L20.4001 19.525C20.2668 19.9583 20.0251 20.3125 19.6751 20.5875C19.3251 20.8625 18.9251 21 18.4751 21H5.52509ZM12.0001 17C12.5501 17 13.0209 16.8042 13.4126 16.4125C13.8043 16.0208 14.0001 15.55 14.0001 15C14.0001 14.45 13.8043 13.9792 13.4126 13.5875C13.0209 13.1958 12.5501 13 12.0001 13C11.4501 13 10.9793 13.1958 10.5876 13.5875C10.1959 13.9792 10.0001 14.45 10.0001 15C10.0001 15.55 10.1959 16.0208 10.5876 16.4125C10.9793 16.8042 11.4501 17 12.0001 17ZM9.17509 9H14.8001L11.9751 4.8L9.17509 9Z" fill="white"/>
</svg>
