<svg width="24" height="24" viewBox="0 0 24 24" fill="none" xmlns="http://www.w3.org/2000/svg">
<g clip-path="url(#clip0_4097_35781)">
<path d="M12 24C5.38242 24 0 18.6176 0 12C0 5.38242 5.38242 0 12 0C18.6176 0 24 5.38242 24 12C24 18.6176 18.6176 24 12 24ZM12 0.450789C5.63035 0.450789 0.450789 5.63035 0.450789 12C0.450789 18.3696 5.63035 23.5492 12 23.5492C18.3696 23.5492 23.5492 18.3696 23.5492 12C23.5492 5.63035 18.3696 0.450789 12 0.450789Z" fill="white"/>
<path d="M17.2879 17.0308L13.1497 11.0173L12.6809 10.3366L9.71918 6.03605L9.47576 5.67993H5.83789L6.72594 6.96919L10.6613 12.6897L11.1302 13.3704L14.2902 17.9639L14.5336 18.3201H18.1715L17.2834 17.0308H17.2879ZM14.9709 17.4951L11.6846 12.7213L11.2158 12.0406L7.40213 6.50037H9.043L12.1264 10.9812L12.5952 11.6619L16.6117 17.4951H14.9709Z" fill="white"/>
<path d="M11.2157 12.0452L11.6845 12.7213L11.13 13.366L6.87456 18.3201H5.82422L10.6612 12.6898L11.2157 12.0452Z" fill="white"/>
<path d="M17.7383 5.67993L13.1493 11.0173L12.5948 11.6619L12.126 10.9812L12.6804 10.3366L15.7909 6.72125L16.688 5.67993H17.7383Z" fill="white"/>
</g>
<defs>
<clipPath id="clip0_4097_35781">
<rect width="24" height="24" fill="white"/>
</clipPath>
</defs>
</svg>
