<svg width="34" height="34" viewBox="0 0 34 34" fill="none" xmlns="http://www.w3.org/2000/svg">
<circle cx="17" cy="17" r="17" fill="#3D3D3D"/>
<path d="M16.9997 16.1284C16.0647 16.1284 15.2997 15.8309 14.7047 15.2359C14.1097 14.6409 13.8122 13.8759 13.8122 12.9409C13.8122 12.0059 14.1097 11.2409 14.7047 10.6459C15.2997 10.0509 16.0647 9.75342 16.9997 9.75342C17.9347 9.75342 18.6997 10.0509 19.2947 10.6459C19.8897 11.2409 20.1872 12.0059 20.1872 12.9409C20.1872 13.8759 19.8897 14.6409 19.2947 15.2359C18.6997 15.8309 17.9347 16.1284 16.9997 16.1284ZM10.1997 22.9497V20.9522C10.1997 20.4138 10.3343 19.9534 10.6035 19.5709C10.8726 19.1884 11.2197 18.898 11.6447 18.6997C12.5939 18.2747 13.5041 17.9559 14.3753 17.7434C15.2466 17.5309 16.1214 17.4247 16.9997 17.4247C17.878 17.4247 18.7493 17.5345 19.6135 17.754C20.4776 17.9736 21.3843 18.2888 22.3335 18.6997C22.7726 18.898 23.1268 19.1884 23.396 19.5709C23.6651 19.9534 23.7997 20.4138 23.7997 20.9522V22.9497H10.1997Z" fill="white"/>
</svg>
