<svg width="24" height="24" viewBox="0 0 24 24" fill="none" xmlns="http://www.w3.org/2000/svg">
<g clip-path="url(#clip0_4097_35797)">
<path d="M12 24C5.38242 24 0 18.6176 0 12C0 5.38242 5.38242 0 12 0C18.6176 0 24 5.38242 24 12C24 18.6176 18.6176 24 12 24ZM12 0.450789C5.63035 0.450789 0.450789 5.63035 0.450789 12C0.450789 18.3696 5.63035 23.5492 12 23.5492C18.3696 23.5492 23.5492 18.3696 23.5492 12C23.5492 5.63035 18.3696 0.450789 12 0.450789Z" fill="white"/>
<path d="M10.7829 17.2653C8.26301 17.5133 6.0857 16.3728 5.91891 14.7184C5.75663 13.064 7.66797 11.5178 10.1879 11.2698C12.7078 11.0219 14.8851 12.1624 15.0519 13.8168C15.2142 15.4712 13.3028 17.0174 10.7829 17.2653ZM15.8273 11.7702C15.6109 11.7071 15.4666 11.662 15.5793 11.3825C15.8227 10.7695 15.8498 10.242 15.5838 9.86788C15.088 9.16014 13.7356 9.20071 12.1849 9.84985C12.1849 9.84985 11.698 10.0617 11.8242 9.67855C12.0632 8.91221 12.0271 8.26758 11.6575 7.89793C10.8145 7.05496 8.57857 7.92949 6.65821 9.84985C5.22019 11.2879 4.38623 12.8115 4.38623 14.1278C4.38623 16.6477 7.61839 18.1759 10.7784 18.1759C14.9212 18.1759 17.6755 15.7687 17.6755 13.8574C17.6755 12.7033 16.7018 12.0497 15.8273 11.7747" fill="white"/>
<path d="M18.577 7.16311C17.5762 6.05416 16.1021 5.63042 14.7407 5.91893C14.4252 5.98655 14.2268 6.29759 14.2945 6.61314C14.3621 6.92869 14.6731 7.12704 14.9887 7.05942C15.9579 6.85206 17.0082 7.15409 17.716 7.94297C18.4012 8.7048 18.6311 9.77317 18.3155 10.7469C18.2163 11.0534 18.3831 11.3825 18.6897 11.4817C18.9962 11.5808 19.3253 11.414 19.4244 11.1075C19.8527 9.78219 19.5822 8.26754 18.5815 7.16311" fill="white"/>
<path d="M17.0399 8.54699C16.5531 8.00605 15.8363 7.80319 15.1691 7.94294C14.8987 7.99252 14.7138 8.25398 14.7634 8.52896C14.813 8.80394 15.0745 8.98426 15.3494 8.93467C15.3585 8.93467 15.3675 8.93467 15.3765 8.93016C15.7101 8.85804 16.0617 8.97073 16.2916 9.22318C16.5215 9.48012 16.5981 9.83625 16.4899 10.1653C16.4043 10.4313 16.5485 10.7108 16.8145 10.7964C17.0805 10.8821 17.36 10.7378 17.4456 10.4719C17.653 9.82723 17.5223 9.09245 17.0354 8.5515" fill="white"/>
<path d="M11.0355 12.5456C9.83637 12.2346 8.47949 12.8296 7.95658 13.889C7.42465 14.9663 7.93854 16.1654 9.15117 16.5576C10.4089 16.9633 11.8875 16.3412 12.4014 15.1782C12.9107 14.0422 12.2751 12.8702 11.0355 12.5456ZM10.1204 15.2999C9.87694 15.6876 9.35402 15.8589 8.96184 15.6786C8.57416 15.5028 8.46146 15.052 8.70489 14.6688C8.9438 14.2902 9.44869 14.1234 9.84087 14.2856C10.2376 14.4524 10.3638 14.9032 10.1204 15.2954V15.2999ZM10.9228 14.2676C10.8326 14.4209 10.6388 14.493 10.4855 14.4299C10.3367 14.3668 10.2872 14.2 10.3728 14.0512C10.4585 13.9025 10.6478 13.8304 10.7965 13.889C10.9498 13.943 11.0039 14.1143 10.9183 14.2676H10.9228Z" fill="white"/>
</g>
<defs>
<clipPath id="clip0_4097_35797">
<rect width="24" height="24" fill="white"/>
</clipPath>
</defs>
</svg>
