<svg width="24" height="24" viewBox="0 0 24 24" fill="none" xmlns="http://www.w3.org/2000/svg">
<g clip-path="url(#clip0_4097_35793)">
<path d="M12 24C5.38242 24 0 18.6176 0 12C0 5.38242 5.38242 0 12 0C18.6176 0 24 5.38242 24 12C24 18.6176 18.6176 24 12 24ZM12 0.450789C5.63035 0.450789 0.450789 5.63035 0.450789 12C0.450789 18.3696 5.63035 23.5492 12 23.5492C18.3696 23.5492 23.5492 18.3696 23.5492 12C23.5492 5.63035 18.3696 0.450789 12 0.450789Z" fill="white"/>
<path d="M18.374 8.77683C18.2207 8.19982 17.7699 7.74453 17.1974 7.59126C16.1606 7.31177 11.9998 7.31177 11.9998 7.31177C11.9998 7.31177 7.83905 7.31177 6.80224 7.59126C6.22974 7.74453 5.77895 8.19982 5.62568 8.77683C5.34619 9.82266 5.34619 12 5.34619 12C5.34619 12 5.34619 14.1773 5.62568 15.2231C5.77895 15.8001 6.22974 16.2554 6.80224 16.4087C7.83905 16.6882 11.9998 16.6882 11.9998 16.6882C11.9998 16.6882 16.1606 16.6882 17.1974 16.4087C17.7699 16.2554 18.2207 15.8001 18.374 15.2231C18.6535 14.1773 18.6535 12 18.6535 12C18.6535 12 18.6535 9.82266 18.374 8.77683ZM10.6385 13.9789V10.021L14.1185 12L10.6385 13.9789Z" fill="white"/>
</g>
<defs>
<clipPath id="clip0_4097_35793">
<rect width="24" height="24" fill="white"/>
</clipPath>
</defs>
</svg>
